<svg width="27" height="27" viewBox="0 0 27 27" fill="none" xmlns="http://www.w3.org/2000/svg">
<rect x="0.5" y="0.5" width="26" height="26" rx="13" fill="#79BFBF"/>
<g clip-path="url(#clip0_37_156)">
<path d="M21.4001 8.34001L18.6601 5.60001C18.3024 5.26411 17.8338 5.07137 17.3434 5.05846C16.8529 5.04556 16.3748 5.21338 16.0001 5.53001L7.00005 14.53C6.67682 14.856 6.47556 15.2832 6.43005 15.74L6.00005 19.91C5.98658 20.0565 6.00559 20.2041 6.05571 20.3424C6.10584 20.4807 6.18585 20.6062 6.29005 20.71C6.38349 20.8027 6.49431 20.876 6.61615 20.9258C6.73798 20.9755 6.86845 21.0008 7.00005 21H7.09005L11.2601 20.62C11.7168 20.5745 12.1441 20.3732 12.4701 20.05L21.4701 11.05C21.8194 10.681 22.0082 10.1885 21.995 9.68055C21.9819 9.17257 21.768 8.69052 21.4001 8.34001ZM11.0801 18.62L8.08005 18.9L8.35005 15.9L14.0001 10.32L16.7001 13.02L11.0801 18.62ZM18.0001 11.68L15.3201 9.00001L17.2701 7.00001L20.0001 9.73001L18.0001 11.68Z" fill="white"/>
</g>
<rect x="0.5" y="0.5" width="26" height="26" rx="13" stroke="#3B4A4A"/>
<defs>
<clipPath id="clip0_37_156">
<rect width="24" height="24" fill="white" transform="translate(2 1)"/>
</clipPath>
</defs>
</svg>
